<?xml version="1.0" standalone="no"?>
<!DOCTYPE svg PUBLIC "-//W3C//DTD SVG 20010904//EN"
 "http://www.w3.org/TR/2001/REC-SVG-20010904/DTD/svg10.dtd">
<svg version="1.0" xmlns="http://www.w3.org/2000/svg"
 width="700.000000pt" height="700.000000pt" viewBox="0 0 700.000000 700.000000"
 preserveAspectRatio="xMidYMid meet">
<metadata>
Created by potrace 1.14, written by Peter Selinger 2001-2017
</metadata>
<g transform="translate(0.000000,700.000000) scale(0.100000,-0.100000)"
fill="#000000" stroke="none">
<path d="M3205 6913 c-22 -2 -105 -12 -185 -24 -904 -126 -1718 -610 -2268
-1347 -374 -502 -598 -1084 -662 -1721 -13 -133 -13 -509 0 -642 99 -981 580
-1835 1368 -2426 452 -339 973 -554 1557 -644 178 -27 601 -37 793 -20 1138
107 2130 754 2690 1756 195 349 327 742 393 1170 27 178 37 601 20 793 -126
1346 -1014 2481 -2292 2930 -225 79 -534 145 -798 172 -94 9 -520 12 -616 3z
m-120 -617 c69 -29 65 45 65 -1180 l0 -1106 24 10 c14 5 114 49 223 98 240
108 327 138 458 158 170 26 356 -10 500 -97 131 -79 252 -249 296 -416 48
-183 33 -474 -38 -743 -81 -307 -93 -356 -104 -450 -22 -180 19 -326 121 -434
60 -64 136 -106 245 -138 115 -33 308 -33 415 0 262 81 468 318 557 637 26 94
28 111 28 300 -1 161 -5 224 -23 325 -34 188 -86 379 -173 637 -44 127 -79
241 -79 252 0 11 14 36 31 56 27 30 37 35 76 35 69 0 87 -27 160 -231 96 -272
169 -557 204 -794 18 -121 18 -439 0 -530 -48 -246 -162 -473 -321 -639 -121
-126 -259 -213 -412 -257 -156 -45 -406 -34 -587 27 -283 94 -451 337 -451
651 0 124 21 245 84 494 72 283 90 407 83 574 -7 199 -59 332 -165 426 -138
121 -349 151 -560 80 -51 -17 -176 -70 -278 -117 -102 -47 -214 -96 -247 -109
l-62 -23 -5 -990 -5 -990 -24 -26 c-33 -35 -85 -44 -127 -21 -18 10 -36 25
-41 34 -4 9 -10 448 -13 976 l-5 960 -35 -3 c-53 -4 -207 15 -294 38 -115 29
-239 88 -368 172 -142 94 -175 111 -268 136 -106 29 -178 35 -252 22 -161 -30
-262 -126 -304 -292 -57 -220 92 -415 412 -544 202 -82 328 -160 445 -275 220
-216 295 -481 212 -744 -55 -175 -185 -320 -368 -411 -128 -63 -224 -86 -365
-87 -170 -1 -289 27 -445 104 -92 45 -238 157 -260 199 -41 79 4 160 88 160
41 0 51 -5 120 -68 134 -122 303 -185 497 -185 90 0 117 4 190 30 198 68 329
210 360 391 41 237 -142 499 -446 638 -205 93 -310 149 -383 204 -181 137
-275 309 -274 500 1 163 61 308 173 421 121 122 248 170 445 170 199 0 341
-50 553 -195 162 -110 329 -166 497 -166 l75 0 0 1144 0 1144 25 31 c22 26 35
32 78 40 4 0 23 -5 42 -13z"/>
</g>
</svg>
