<?xml version="1.0" encoding="utf-8"?>
<!-- Generator: Adobe Illustrator 22.0.1, SVG Export Plug-In . SVG Version: 6.00 Build 0)  -->
<svg version="1.1" id="Layer_1" xmlns="http://www.w3.org/2000/svg" xmlns:xlink="http://www.w3.org/1999/xlink" x="0px" y="0px"
	 viewBox="0 0 92 92" style="enable-background:new 0 0 92 92;" xml:space="preserve">
<style type="text/css">
	.st0{fill:none;}
	.st1{fill:#FFFFFF;}
	.st2{fill:#8CA0B4;}
	.st3{fill:url(#SVGID_1_);}
</style>
<pattern  y="92" width="92" height="96" patternUnits="userSpaceOnUse" id="New_Pattern" viewBox="37.2 -139.2 92 96" style="overflow:visible;">
	<g>
		<rect x="37.2" y="-139.2" class="st0" width="92" height="96"/>
		<g>
			<rect x="37.2" y="-139.2" class="st0" width="92" height="96"/>
			<path class="st1" d="M159.7-138.7c-0.2,3.6-0.8,6.9-1.2,8.8c-0.1,0.8-0.9,1.3-1.6,1.1c-0.8-0.1-1.3-0.9-1.1-1.6
				c0.4-1.9,0.9-5,1.2-8.5c0.2-3.4,0.1-7-0.9-9.9c-1.5-4.2-5.1-8-9.8-8.1c-0.7,0-1.4,0.1-2.1,0.2c-1,0.2-2,0.6-2.9,1
				c-3,1.5-3.9,4.2-3.1,7.4c0.6,2.7,2.1,5,3.1,7.5c1.5,3.8,1.9,7,1.4,9.6c-0.6,2.8-2.2,4.7-4.6,6c-3.6,1.9-7.2,1.1-10.9,0
				c-1.1-0.3-2.1-0.6-3.2-0.8l5,28.4c0.1,0.8-0.4,1.5-1.1,1.6c-0.8,0.1-1.5-0.4-1.6-1.2l-5.4-28.9c-2.7,0.2-5.4,1.8-6.8,3.2
				c-1,1-2.1,2.1-3.6,3l0,0h-0.1l0,0c-2.1,1.1-4.4,1.6-6.5,1.2c-2.2-0.4-4.1-1.7-5.3-4l0,0c-2.3-4.3-0.3-8.3,3.2-11
				c0.6-0.5,1.4-1,2.2-1.5l0,0l0,0l0,0c3-1.8,6-5.3,5.3-9c-0.1-0.5-0.2-0.9-0.4-1.3l0,0l0,0l0,0c-1.4-2.8-4.6-4.1-7.6-3.7
				c-2.6,0.3-5.5,1.9-6.7,4.1c-0.4,0.7-1.3,0.9-1.9,0.5c-0.7-0.4-0.9-1.3-0.5-1.9c0,0,1.9-3.4,6.7-5l0,0c0.7-0.2,1.4-0.4,2.1-0.5
				c4.2-0.6,8.6,1.3,10.5,5.2l0,0l0,0c0,0,0.6,1.8,0.7,2c1,5-2.5,9.6-6.6,12l0,0l0,0c-0.7,0.4-1.3,0.8-1.9,1.3
				c-2.4,1.8-4.1,4.4-2.4,7.5l0,0c0.8,1.5,2,2.3,3.3,2.5c1.4,0.3,3.1-0.1,4.6-0.9l0,0l0,0l0,0c1.2-0.6,2.1-1.6,3-2.5
				c1.7-1.8,4.8-3.7,8.3-4l-4.3-24.4c-0.1-0.8,0.4-1.5,1.1-1.6c0.8-0.1,1.5,0.4,1.6,1.1l4.4,25c1.5,0.2,3,0.6,4.5,1
				c2.9,0.8,6,1.7,8.8,0.2c1.6-0.8,2.7-2.2,3.1-4.1c0.4-2,0.1-4.7-1.2-8c-1.1-2.7-2.6-5.1-3.3-7.9c-1-4.5,0.4-8.4,4.6-10.6
				c1.1-0.6,2.3-1,3.6-1.3l0,0c0.9-0.2,1.8-0.3,2.7-0.3c5.8,0.1,10.5,4.7,12.4,10C159.8-146.4,160-142.4,159.7-138.7z"/>
			<path class="st1" d="M67.7-138.7c-0.2,3.6-0.8,6.9-1.2,8.8c-0.1,0.8-0.9,1.3-1.6,1.1c-0.8-0.1-1.3-0.9-1.1-1.6
				c0.4-1.9,0.9-5,1.2-8.5c0.2-3.4,0.1-7-0.9-9.9c-1.5-4.2-5.1-8-9.8-8.1c-0.7,0-1.4,0.1-2.1,0.2c-1,0.2-2,0.6-2.9,1
				c-3,1.5-3.9,4.2-3.1,7.4c0.6,2.7,2.1,5,3.1,7.5c1.5,3.8,1.9,7,1.4,9.6c-0.6,2.8-2.2,4.7-4.6,6c-3.6,1.9-7.2,1.1-10.9,0
				c-1.2-0.2-2.3-0.5-3.3-0.7l5,28.4c0.1,0.8-0.4,1.5-1.1,1.6c-0.8,0.1-1.5-0.4-1.6-1.2l-5.3-29c-2.7,0.2-5.4,1.8-6.8,3.2
				c-1,1-2.1,2.1-3.6,3l0,0h-0.1l0,0c-2.1,1.1-4.4,1.6-6.5,1.2c-2.2-0.4-4.1-1.7-5.3-4l0,0c-2.3-4.3-0.3-8.3,3.2-11
				c0.6-0.5,1.4-1,2.2-1.5l0,0l0,0l0,0c3-1.8,6-5.3,5.3-9c-0.1-0.5-0.2-0.9-0.4-1.3l0,0l0,0l0,0c-1.4-2.8-4.6-4.1-7.6-3.7
				c-2.6,0.3-5.5,1.9-6.7,4.1c-0.4,0.7-1.3,0.9-1.9,0.5c-0.7-0.4-0.9-1.3-0.5-1.9c0,0,1.9-3.4,6.7-5l0,0c0.6-0.3,1.3-0.5,2-0.5
				c4.2-0.6,8.6,1.3,10.5,5.2l0,0l0,0c0,0,0.6,1.8,0.7,2c1,5-2.5,9.6-6.6,12l0,0l0,0c-0.7,0.4-1.3,0.8-1.9,1.3
				c-2.4,1.8-4.1,4.4-2.4,7.5l0,0c0.8,1.5,2,2.3,3.3,2.5c1.4,0.3,3.1-0.1,4.6-0.9l0,0l0,0l0,0c1.2-0.6,2.1-1.6,3-2.5
				c1.7-1.8,4.8-3.7,8.3-4l-4.3-24.5c-0.1-0.8,0.4-1.5,1.1-1.6c0.8-0.1,1.5,0.4,1.6,1.1l4.4,25c1.5,0.2,3,0.6,4.5,1
				c2.9,0.8,6,1.7,8.8,0.2c1.6-0.8,2.7-2.2,3.1-4.1c0.4-2,0.1-4.7-1.2-8c-1.1-2.7-2.6-5.1-3.3-7.9c-1-4.5,0.4-8.4,4.6-10.6
				c1.1-0.6,2.3-1,3.6-1.3l0,0c1.1,0,2-0.1,2.9-0.1c5.8,0.1,10.5,4.7,12.4,10C67.8-146.4,68-142.4,67.7-138.7z"/>
			<path class="st1" d="M113.7-90.7c-0.2,3.6-0.8,6.9-1.2,8.8c-0.1,0.8-0.9,1.3-1.6,1.1c-0.8-0.1-1.3-0.9-1.1-1.6
				c0.4-1.9,0.9-5,1.2-8.5c0.2-3.4,0.1-7-0.9-9.9c-1.5-4.2-5.1-8-9.8-8.1c-0.7,0-1.4,0.1-2.1,0.2c-1,0.2-2,0.6-2.9,1
				c-3,1.5-3.9,4.2-3.1,7.4c0.6,2.7,2.1,5,3.1,7.5c1.5,3.8,1.9,7,1.4,9.6c-0.6,2.8-2.2,4.7-4.6,6c-3.6,1.9-7.2,1.1-10.9,0
				c-1.2-0.2-2.3-0.5-3.3-0.7l5,28.4c0.1,0.8-0.4,1.5-1.1,1.6c-0.8,0.1-1.5-0.4-1.6-1.2l-5.3-29c-2.7,0.2-5.4,1.8-6.8,3.2
				c-1,1-2.1,2.1-3.6,3l0,0h-0.1l0,0c-2.1,1.1-4.4,1.6-6.5,1.2c-2.2-0.4-4.1-1.7-5.3-4l0,0c-2.3-4.3-0.3-8.3,3.2-11
				c0.6-0.5,1.4-1,2.2-1.5l0,0l0,0l0,0c3-1.8,6-5.3,5.3-9c-0.1-0.5-0.2-0.9-0.4-1.3l0,0l0,0l0,0c-1.4-2.8-4.6-4.1-7.6-3.7
				c-2.6,0.3-5.5,1.9-6.7,4.1c-0.4,0.7-1.3,0.9-1.9,0.5c-0.7-0.4-0.9-1.3-0.5-1.9c0,0,1.9-3.4,6.7-5l0,0c0.7-0.2,1.4-0.4,2.1-0.5
				c4.2-0.6,8.6,1.3,10.5,5.2l0,0l0,0c0,0,0.6,1.8,0.7,2c1,5-2.5,9.6-6.6,12l0,0l0,0c-0.7,0.4-1.3,0.8-1.9,1.3
				c-2.4,1.8-4.1,4.4-2.4,7.5l0,0c0.8,1.5,2,2.3,3.3,2.5c1.4,0.3,3.1-0.1,4.6-0.9l0,0l0,0l0,0c1.2-0.6,2.1-1.6,3-2.5
				c1.7-1.8,4.8-3.7,8.3-4l-4.3-24.4c-0.1-0.8,0.4-1.5,1.1-1.6c0.8-0.1,1.5,0.4,1.6,1.1l4.4,25c1.5,0.2,3,0.6,4.5,1
				c2.9,0.8,6,1.7,8.8,0.2c1.6-0.8,2.7-2.2,3.1-4.1c0.4-2,0.1-4.7-1.2-8c-1.1-2.7-2.6-5.1-3.3-7.9c-1-4.5,0.4-8.4,4.6-10.6
				c1.1-0.6,2.3-1,3.6-1.3l0,0c0.9-0.2,1.8-0.3,2.7-0.3c5.8,0.1,10.5,4.7,12.4,10C113.8-98.4,114-94.4,113.7-90.7z"/>
			<path class="st1" d="M159.7-42.7c-0.2,3.6-0.8,6.9-1.2,8.8c-0.1,0.8-0.9,1.3-1.6,1.1c-0.8-0.1-1.3-0.9-1.1-1.6
				c0.4-1.9,0.9-5,1.2-8.5c0.2-3.4,0.1-7-0.9-9.9c-1.5-4.2-5.1-8-9.8-8.1c-0.7,0-1.4,0.1-2.1,0.2c-1,0.2-2,0.6-2.9,1
				c-3,1.5-3.9,4.2-3.1,7.4c0.6,2.7,2.1,5,3.1,7.5c1.5,3.8,1.9,7,1.4,9.6c-0.6,2.8-2.2,4.7-4.6,6c-3.6,1.9-7.2,1.1-10.9,0
				c-1.1-0.3-2.1-0.6-3.2-0.8l5,28.4c0.1,0.8-0.4,1.5-1.1,1.6c-0.8,0.1-1.5-0.4-1.6-1.2l-5.1-29.1c-2.7,0.2-5.4,1.8-6.8,3.2
				c-1,1-2.1,2.1-3.6,3l0,0h-0.1l0,0c-2.1,1.1-4.4,1.6-6.5,1.2c-2.2-0.4-4.1-1.7-5.3-4l0,0c-2.3-4.3-0.3-8.3,3.2-11
				c0.6-0.5,1.4-1,2.2-1.5l0,0l0,0l0,0c3-1.8,6-5.3,5.3-9c-0.1-0.5-0.2-0.9-0.4-1.3l0,0l0,0l0,0c-1.4-2.8-4.6-4.1-7.6-3.7
				c-2.6,0.3-5.5,1.9-6.7,4.1c-0.4,0.7-1.3,0.9-1.9,0.5c-0.7-0.4-0.9-1.3-0.5-1.9c0,0,1.9-3.4,6.7-5l0,0c0.7-0.2,1.4-0.4,2.1-0.5
				c4.2-0.6,8.6,1.3,10.5,5.2l0,0l0,0c0,0,0.6,1.8,0.7,2c1,5-2.5,9.6-6.6,12l0,0l0,0c-0.7,0.4-1.3,0.8-1.9,1.3
				c-2.4,1.8-4.1,4.4-2.4,7.5l0,0c0.8,1.5,2,2.3,3.3,2.5c1.4,0.3,3.1-0.1,4.6-0.9l0,0l0,0l0,0c1.2-0.6,2.1-1.6,3-2.5
				c1.7-1.8,4.8-3.7,8.3-4l-4.3-24.4c-0.1-0.8,0.4-1.5,1.1-1.6c0.8-0.1,1.5,0.4,1.6,1.1l4.4,25c1.5,0.2,3,0.6,4.5,1
				c2.9,0.8,6,1.7,8.8,0.2c1.6-0.8,2.7-2.2,3.1-4.1c0.4-2,0.1-4.7-1.2-8c-1.1-2.7-2.6-5.1-3.3-7.9c-1-4.5,0.4-8.4,4.6-10.6
				c1.1-0.6,2.3-1,3.6-1.3l0,0c0.9-0.2,1.8-0.3,2.7-0.3c5.8,0.1,10.5,4.7,12.4,10C159.8-50.4,160-46.4,159.7-42.7z"/>
			<path class="st1" d="M67.7-42.7c-0.2,3.6-0.8,6.9-1.2,8.8c-0.1,0.8-0.9,1.3-1.6,1.1c-0.8-0.1-1.3-0.9-1.1-1.6
				c0.4-1.9,0.9-5,1.2-8.5c0.2-3.4,0.1-7-0.9-9.9c-1.5-4.2-5.1-8-9.8-8.1c-0.7,0-1.4,0.1-2.1,0.2c-1,0.2-2,0.6-2.9,1
				c-3,1.5-3.9,4.2-3.1,7.4c0.6,2.7,2.1,5,3.1,7.5c1.5,3.8,1.9,7,1.4,9.6c-0.6,2.8-2.2,4.7-4.6,6c-3.6,1.9-7.2,1.1-10.9,0
				c-1.1-0.3-2.1-0.6-3.2-0.8l5,28.4c0.1,0.8-0.4,1.5-1.1,1.6c-0.8,0.1-1.5-0.4-1.6-1.2l-5.4-28.9c-2.7,0.2-5.4,1.8-6.8,3.2
				c-1,1-2.1,2.1-3.6,3l0,0h-0.1l0,0c-2.1,1.1-4.4,1.6-6.5,1.2c-2.2-0.4-4.1-1.7-5.3-4l0,0C4.3-31,6.3-35,9.8-37.7
				c0.6-0.5,1.4-1,2.2-1.5l0,0l0,0l0,0c3-1.8,6-5.3,5.3-9c-0.1-0.5-0.2-0.9-0.4-1.3l0,0l0,0l0,0c-1.4-2.8-4.6-4.1-7.6-3.7
				c-2.6,0.3-5.5,1.9-6.7,4.1c-0.4,0.7-1.3,0.9-1.9,0.5C0-49-0.2-49.9,0.2-50.5c0,0,1.9-3.4,6.7-5l0,0C7.6-55.7,8.3-55.9,9-56
				c4.2-0.6,8.6,1.3,10.5,5.2l0,0l0,0c0,0,0.6,1.8,0.7,2c1,5-2.5,9.6-6.6,12l0,0l0,0c-0.7,0.4-1.3,0.8-1.9,1.3
				c-2.4,1.8-4.1,4.4-2.4,7.5l0,0c0.8,1.5,2,2.3,3.3,2.5c1.4,0.3,3.1-0.1,4.6-0.9l0,0l0,0l0,0c1.2-0.6,2.1-1.6,3-2.5
				c1.7-1.8,4.8-3.7,8.3-4l-4.3-24.4c-0.1-0.8,0.4-1.5,1.1-1.6c0.8-0.1,1.5,0.4,1.6,1.1l4.4,25c1.5,0.2,3,0.6,4.5,1
				c2.9,0.8,6,1.7,8.8,0.2c1.6-0.8,2.7-2.2,3.1-4.1c0.4-2,0.1-4.7-1.2-8c-1.1-2.7-2.6-5.1-3.3-7.9c-1-4.5,0.4-8.4,4.6-10.6
				c1.1-0.6,2.3-1,3.6-1.3l0,0c0.9-0.2,1.8-0.3,2.7-0.3c5.8,0.1,10.5,4.7,12.4,10C67.8-50.4,68-46.4,67.7-42.7z"/>
		</g>
	</g>
</pattern>
<circle class="st2" cx="46" cy="46" r="45"/>
<path class="st1" d="M79.8,56.7c-1,5.5-4.8,10.9-10.5,12c-0.9,0.2-1.8,0.2-2.8,0.2l0,0c-1.3-0.1-2.6-0.3-3.7-0.6
	c-4.5-1.4-6.6-5-6.3-9.6c0.2-2.9,1.2-5.6,1.8-8.4c0.7-3.5,0.6-6.1-0.2-8.1c-0.7-1.8-2-2.9-3.8-3.5c-3.1-1-6,0.4-8.7,1.7
	c-1.4,0.7-2.8,1.3-4.2,1.8v25.4c0,0.8-0.6,1.4-1.4,1.4c-0.8,0-1.4-0.6-1.4-1.4V42.9c-3.5,0.3-6.9-1.1-8.9-2.5
	c-1-0.7-2.1-1.5-3.4-1.9l0,0h-0.1l0,0c-1.7-0.6-3.4-0.6-4.7-0.1s-2.3,1.5-2.8,3.1l0,0c-1.1,3.2,1.1,5.5,3.7,6.9
	c0.6,0.3,1.3,0.6,2.1,0.9l0,0l0,0C29,51,33.2,54.9,33.1,60c0,0.2-0.3,2.1-0.3,2.1l0,0l0,0c-1.2,4.2-5.2,6.8-9.4,7
	c-0.7,0-1.4,0-2.1-0.1l0,0c-5-0.7-7.5-3.8-7.5-3.8c-0.5-0.6-0.4-1.5,0.2-2c0.6-0.5,1.5-0.4,2,0.2c1.6,1.9,4.7,3,7.3,2.9
	c3-0.1,5.9-1.9,6.8-4.9l0,0l0,0l0,0c0.1-0.5,0.2-0.9,0.2-1.4c0.1-3.9-3.5-6.7-6.7-8l0,0l0,0l0,0c-0.9-0.3-1.7-0.7-2.4-1.1
	c-3.9-2.1-6.6-5.6-5.1-10.3l0,0c0.8-2.4,2.5-4,4.5-4.8c2-0.7,4.3-0.7,6.6,0l0,0h0.1l0,0c1.7,0.6,2.9,1.4,4.1,2.3
	c1.6,1.2,4.6,2.2,7.2,2V10.5c0-0.8,0.6-1.4,1.4-1.4c0.8,0,1.4,0.6,1.4,1.4v28.8c1-0.4,2-0.9,3-1.3c3.4-1.7,6.9-3.1,10.7-1.9
	c2.6,0.8,4.5,2.5,5.6,5.1c1,2.4,1.1,5.7,0.3,9.7c-0.6,2.7-1.6,5.2-1.8,7.9c-0.2,3.3,1.2,5.8,4.4,6.8c1,0.3,2,0.5,3.1,0.5
	c0.7,0,1.4,0,2.1-0.2c4.6-0.9,7.5-5.3,8.3-9.7c0.5-3,0-6.6-0.8-9.9c-0.8-3.4-2-6.4-2.6-8.2c-0.3-0.7,0.1-1.5,0.8-1.8
	c0.7-0.3,1.5,0.1,1.8,0.8c0.7,1.8,1.9,5,2.7,8.5C79.9,49.2,80.4,53.2,79.8,56.7z"/>
<g>
	<g>
		<pattern  id="SVGID_1_" xlink:href="#New_Pattern" patternTransform="matrix(1 0 0 -1 -649.4 -15882.8457)">
		</pattern>
		<path class="st3" d="M1149.3,46.6c1.1,0,1.5-1.4,0.2-1.4C1148.4,45.2,1148,46.6,1149.3,46.6L1149.3,46.6z"/>
	</g>
</g>
</svg>
