<?xml version="1.0" encoding="utf-8"?>
<!-- Generator: Adobe Illustrator 22.0.1, SVG Export Plug-In . SVG Version: 6.00 Build 0)  -->
<svg version="1.1" id="Layer_1" xmlns="http://www.w3.org/2000/svg" xmlns:xlink="http://www.w3.org/1999/xlink" x="0px" y="0px"
	 viewBox="0 0 92 92" style="enable-background:new 0 0 92 92;" xml:space="preserve">
<style type="text/css">
	.st0{fill:none;}
	.st1{fill:#FFFFFF;}
	.st2{fill:#8CA0B4;}
	.st3{fill:#1A1A18;}
	.st4{fill:none;stroke:#1A1A18;stroke-width:21;stroke-linecap:round;}
	.st5{fill:none;stroke:#1A1A18;stroke-width:3;stroke-linecap:round;}
	.st6{fill:#8C96A0;}
	.st7{fill:#C69C6D;}
	.st8{fill:#302412;}
	.st9{opacity:0.12;fill:url(#SVGID_3_);}
	.st10{opacity:0.12;fill:url(#SVGID_4_);}
	.st11{fill:url(#New_Pattern);}
</style>
<pattern  x="-644.1" y="-618.6" width="92" height="96" patternUnits="userSpaceOnUse" id="New_Pattern" viewBox="37.3 -116.5 92 96" style="overflow:visible;">
	<g>
		<rect x="37.3" y="-116.5" class="st0" width="92" height="96"/>
		<path class="st1" d="M159.8-21c-0.2-3.6-0.8-6.9-1.2-8.8c-0.1-0.8-0.9-1.3-1.6-1.1c-0.8,0.1-1.3,0.9-1.1,1.6
			c0.4,1.9,0.9,5,1.2,8.5c0.2,3.4,0.1,7-0.9,9.9c-1.5,4.2-5.1,8-9.8,8.1c-0.7,0-1.4-0.1-2.1-0.2c-1-0.2-2-0.6-2.9-1
			c-3-1.5-3.9-4.2-3.1-7.4c0.6-2.7,2.1-5,3.1-7.5c1.5-3.8,1.9-7,1.4-9.6c-0.6-2.8-2.2-4.7-4.6-6c-3.6-1.9-7.2-1.1-10.9,0
			c-1.1,0.3-2.1,0.6-3.2,0.8l5-28.4c0.1-0.8-0.4-1.5-1.1-1.6c-0.8-0.1-1.5,0.4-1.6,1.2L121-33.6c-2.7-0.2-5.4-1.8-6.8-3.2
			c-1-1-2.1-2.1-3.6-3l0,0l-0.1,0l0,0c-2.1-1.1-4.4-1.6-6.5-1.2c-2.2,0.4-4.1,1.7-5.3,4l0,0c-2.3,4.3-0.3,8.3,3.2,11
			c0.6,0.5,1.4,1,2.2,1.5l0,0l0,0l0,0c3,1.8,6,5.3,5.3,9c-0.1,0.5-0.2,0.9-0.4,1.3l0,0l0,0l0,0c-1.4,2.8-4.6,4.1-7.6,3.7
			c-2.6-0.3-5.5-1.9-6.7-4.1c-0.4-0.7-1.3-0.9-1.9-0.5c-0.7,0.4-0.9,1.3-0.5,1.9c0,0,1.9,3.4,6.7,5l0,0c0.7,0.2,1.4,0.4,2.1,0.5
			c4.2,0.6,8.6-1.3,10.5-5.2l0,0l0,0c0,0,0.6-1.8,0.7-2c1-5-2.5-9.6-6.6-12l0,0v0c-0.7-0.4-1.3-0.8-1.9-1.3
			c-2.4-1.8-4.1-4.4-2.4-7.5l0,0c0.8-1.5,2-2.3,3.3-2.5c1.4-0.3,3.1,0.1,4.6,0.9l0,0l0,0v0c1.2,0.6,2.1,1.6,3,2.5
			c1.7,1.8,4.8,3.7,8.3,4l-4.3,24.4c-0.1,0.8,0.4,1.5,1.1,1.6c0.8,0.1,1.5-0.4,1.6-1.1l4.4-25c1.5-0.2,3-0.6,4.5-1
			c2.9-0.8,6-1.7,8.8-0.2c1.6,0.8,2.7,2.2,3.1,4.1c0.4,2,0.1,4.7-1.2,8c-1.1,2.7-2.6,5.1-3.3,7.9c-1,4.5,0.4,8.4,4.6,10.6
			c1.1,0.6,2.3,1,3.6,1.3l0,0c0.9,0.2,1.8,0.3,2.7,0.3c5.8-0.1,10.5-4.7,12.4-10C159.9-13.3,160.1-17.3,159.8-21z"/>
		<path class="st1" d="M67.8-21c-0.2-3.6-0.8-6.9-1.2-8.8c-0.1-0.8-0.9-1.3-1.6-1.1c-0.8,0.1-1.3,0.9-1.1,1.6c0.4,1.9,0.9,5,1.2,8.5
			c0.2,3.4,0.1,7-0.9,9.9c-1.5,4.2-5.1,8-9.8,8.1c-0.7,0-1.4-0.1-2.1-0.2c-1-0.2-2-0.6-2.9-1c-3-1.5-3.9-4.2-3.1-7.4
			c0.6-2.7,2.1-5,3.1-7.5c1.5-3.8,1.9-7,1.4-9.6c-0.6-2.8-2.2-4.7-4.6-6c-3.6-1.9-7.2-1.1-10.9,0C34.1-34.3,33-34,32-33.8l5-28.4
			c0.1-0.8-0.4-1.5-1.1-1.6c-0.8-0.1-1.5,0.4-1.6,1.2L29-33.6c-2.7-0.2-5.4-1.8-6.8-3.2c-1-1-2.1-2.1-3.6-3l0,0l-0.1,0l0,0
			c-2.1-1.1-4.4-1.6-6.5-1.2c-2.2,0.4-4.1,1.7-5.3,4l0,0c-2.3,4.3-0.3,8.3,3.2,11c0.6,0.5,1.4,1,2.2,1.5l0,0l0,0l0,0
			c3,1.8,6,5.3,5.3,9c-0.1,0.5-0.2,0.9-0.4,1.3l0,0l0,0l0,0c-1.4,2.8-4.6,4.1-7.6,3.7c-2.6-0.3-5.5-1.9-6.7-4.1
			c-0.4-0.7-1.3-0.9-1.9-0.5c-0.7,0.4-0.9,1.3-0.5,1.9c0,0,1.9,3.4,6.7,5l0,0C7.6-7.9,8.3-7.7,9-7.7c4.2,0.6,8.6-1.3,10.5-5.2l0,0
			l0,0c0,0,0.6-1.8,0.7-2c1-5-2.5-9.6-6.6-12l0,0v0c-0.7-0.4-1.3-0.8-1.9-1.3c-2.4-1.8-4.1-4.4-2.4-7.5l0,0c0.8-1.5,2-2.3,3.3-2.5
			c1.4-0.3,3.1,0.1,4.6,0.9l0,0l0,0v0c1.2,0.6,2.1,1.6,3,2.5c1.7,1.8,4.8,3.7,8.3,4L24.2-6.3c-0.1,0.8,0.4,1.5,1.1,1.6
			c0.8,0.1,1.5-0.4,1.6-1.1l4.4-25c1.5-0.2,3-0.6,4.5-1c2.9-0.8,6-1.7,8.8-0.2c1.6,0.8,2.7,2.2,3.1,4.1c0.4,2,0.1,4.7-1.2,8
			c-1.1,2.7-2.6,5.1-3.3,7.9c-1,4.5,0.4,8.4,4.6,10.6c1.1,0.6,2.3,1,3.6,1.3l0,0C52.5-0.1,53.4,0,54.3,0c5.8-0.1,10.5-4.7,12.4-10
			C67.9-13.3,68.1-17.3,67.8-21z"/>
		<path class="st1" d="M113.8-69c-0.2-3.6-0.8-6.9-1.2-8.8c-0.1-0.8-0.9-1.3-1.6-1.1c-0.8,0.1-1.3,0.9-1.1,1.6
			c0.4,1.9,0.9,5,1.2,8.5c0.2,3.4,0.1,7-0.9,9.9c-1.5,4.2-5.1,8-9.8,8.1c-0.7,0-1.4-0.1-2.1-0.2c-1-0.2-2-0.6-2.9-1
			c-3-1.5-3.9-4.2-3.1-7.4c0.6-2.7,2.1-5,3.1-7.5c1.5-3.8,1.9-7,1.4-9.6c-0.6-2.8-2.2-4.7-4.6-6c-3.6-1.9-7.2-1.1-10.9,0
			C80.1-82.3,79-82,78-81.8l5-28.4c0.1-0.8-0.4-1.5-1.1-1.6c-0.8-0.1-1.5,0.4-1.6,1.2L75-81.6c-2.7-0.2-5.4-1.8-6.8-3.2
			c-1-1-2.1-2.1-3.6-3l0,0l-0.1,0l0,0c-2.1-1.1-4.4-1.6-6.5-1.2c-2.2,0.4-4.1,1.7-5.3,4l0,0c-2.3,4.3-0.3,8.3,3.2,11
			c0.6,0.5,1.4,1,2.2,1.5l0,0l0,0l0,0c3,1.8,6,5.3,5.3,9c-0.1,0.5-0.2,0.9-0.4,1.3l0,0l0,0l0,0c-1.4,2.8-4.6,4.1-7.6,3.7
			c-2.6-0.3-5.5-1.9-6.7-4.1c-0.4-0.7-1.3-0.9-1.9-0.5c-0.7,0.4-0.9,1.3-0.5,1.9c0,0,1.9,3.4,6.7,5l0,0c0.7,0.2,1.4,0.4,2.1,0.5
			c4.2,0.6,8.6-1.3,10.5-5.2l0,0l0,0c0,0,0.6-1.8,0.7-2c1-5-2.5-9.6-6.6-12l0,0v0c-0.7-0.4-1.3-0.8-1.9-1.3
			c-2.4-1.8-4.1-4.4-2.4-7.5l0,0c0.8-1.5,2-2.3,3.3-2.5c1.4-0.3,3.1,0.1,4.6,0.9l0,0l0,0v0c1.2,0.6,2.1,1.6,3,2.5
			c1.7,1.8,4.8,3.7,8.3,4l-4.3,24.4c-0.1,0.8,0.4,1.5,1.1,1.6c0.8,0.1,1.5-0.4,1.6-1.1l4.4-25c1.5-0.2,3-0.6,4.5-1
			c2.9-0.8,6-1.7,8.8-0.2c1.6,0.8,2.7,2.2,3.1,4.1c0.4,2,0.1,4.7-1.2,8c-1.1,2.7-2.6,5.1-3.3,7.9c-1,4.5,0.4,8.4,4.6,10.6
			c1.1,0.6,2.3,1,3.6,1.3l0,0c0.9,0.2,1.8,0.3,2.7,0.3c5.8-0.1,10.5-4.7,12.4-10C113.9-61.3,114.1-65.3,113.8-69z"/>
		<path class="st1" d="M159.8-117c-0.2-3.6-0.8-6.9-1.2-8.8c-0.1-0.8-0.9-1.3-1.6-1.1c-0.8,0.1-1.3,0.9-1.1,1.6
			c0.4,1.9,0.9,5,1.2,8.5c0.2,3.4,0.1,7-0.9,9.9c-1.5,4.2-5.1,8-9.8,8.1c-0.7,0-1.4-0.1-2.1-0.2c-1-0.2-2-0.6-2.9-1
			c-3-1.5-3.9-4.2-3.1-7.4c0.6-2.7,2.1-5,3.1-7.5c1.5-3.8,1.9-7,1.4-9.6c-0.6-2.8-2.2-4.7-4.6-6c-3.6-1.9-7.2-1.1-10.9,0
			c-1.1,0.3-2.1,0.6-3.2,0.8l5-28.4c0.1-0.8-0.4-1.5-1.1-1.6c-0.8-0.1-1.5,0.4-1.6,1.2l-5.1,29.1c-2.7-0.2-5.4-1.8-6.8-3.2
			c-1-1-2.1-2.1-3.6-3l0,0l-0.1,0l0,0c-2.1-1.1-4.4-1.6-6.5-1.2c-2.2,0.4-4.1,1.7-5.3,4l0,0c-2.3,4.3-0.3,8.3,3.2,11
			c0.6,0.5,1.4,1,2.2,1.5l0,0l0,0l0,0c3,1.8,6,5.3,5.3,9c-0.1,0.5-0.2,0.9-0.4,1.3l0,0l0,0l0,0c-1.4,2.8-4.6,4.1-7.6,3.7
			c-2.6-0.3-5.5-1.9-6.7-4.1c-0.4-0.7-1.3-0.9-1.9-0.5c-0.7,0.4-0.9,1.3-0.5,1.9c0,0,1.9,3.4,6.7,5l0,0c0.7,0.2,1.4,0.4,2.1,0.5
			c4.2,0.6,8.6-1.3,10.5-5.2l0,0l0,0c0,0,0.6-1.8,0.7-2c1-5-2.5-9.6-6.6-12l0,0v0c-0.7-0.4-1.3-0.8-1.9-1.3
			c-2.4-1.8-4.1-4.4-2.4-7.5l0,0c0.8-1.5,2-2.3,3.3-2.5c1.4-0.3,3.1,0.1,4.6,0.9l0,0l0,0v0c1.2,0.6,2.1,1.6,3,2.5
			c1.7,1.8,4.8,3.7,8.3,4l-4.3,24.4c-0.1,0.8,0.4,1.5,1.1,1.6c0.8,0.1,1.5-0.4,1.6-1.1l4.4-25c1.5-0.2,3-0.6,4.5-1
			c2.9-0.8,6-1.7,8.8-0.2c1.6,0.8,2.7,2.2,3.1,4.1c0.4,2,0.1,4.7-1.2,8c-1.1,2.7-2.6,5.1-3.3,7.9c-1,4.5,0.4,8.4,4.6,10.6
			c1.1,0.6,2.3,1,3.6,1.3l0,0c0.9,0.2,1.8,0.3,2.7,0.3c5.8-0.1,10.5-4.7,12.4-10C159.9-109.3,160.1-113.3,159.8-117z"/>
		<path class="st1" d="M67.8-117c-0.2-3.6-0.8-6.9-1.2-8.8c-0.1-0.8-0.9-1.3-1.6-1.1c-0.8,0.1-1.3,0.9-1.1,1.6
			c0.4,1.9,0.9,5,1.2,8.5c0.2,3.4,0.1,7-0.9,9.9c-1.5,4.2-5.1,8-9.8,8.1c-0.7,0-1.4-0.1-2.1-0.2c-1-0.2-2-0.6-2.9-1
			c-3-1.5-3.9-4.2-3.1-7.4c0.6-2.7,2.1-5,3.1-7.5c1.5-3.8,1.9-7,1.4-9.6c-0.6-2.8-2.2-4.7-4.6-6c-3.6-1.9-7.2-1.1-10.9,0
			c-1.1,0.3-2.1,0.6-3.2,0.8l5-28.4c0.1-0.8-0.4-1.5-1.1-1.6c-0.8-0.1-1.5,0.4-1.6,1.2L29-129.6c-2.7-0.2-5.4-1.8-6.8-3.2
			c-1-1-2.1-2.1-3.6-3l0,0l-0.1,0l0,0c-2.1-1.1-4.4-1.6-6.5-1.2c-2.2,0.4-4.1,1.7-5.3,4l0,0c-2.3,4.3-0.3,8.3,3.2,11
			c0.6,0.5,1.4,1,2.2,1.5l0,0l0,0l0,0c3,1.8,6,5.3,5.3,9c-0.1,0.5-0.2,0.9-0.4,1.3l0,0l0,0l0,0c-1.4,2.8-4.6,4.1-7.6,3.7
			c-2.6-0.3-5.5-1.9-6.7-4.1c-0.4-0.7-1.3-0.9-1.9-0.5c-0.7,0.4-0.9,1.3-0.5,1.9c0,0,1.9,3.4,6.7,5l0,0c0.7,0.2,1.4,0.4,2.1,0.5
			c4.2,0.6,8.6-1.3,10.5-5.2l0,0l0,0c0,0,0.6-1.8,0.7-2c1-5-2.5-9.6-6.6-12l0,0v0c-0.7-0.4-1.3-0.8-1.9-1.3
			c-2.4-1.8-4.1-4.4-2.4-7.5l0,0c0.8-1.5,2-2.3,3.3-2.5c1.4-0.3,3.1,0.1,4.6,0.9l0,0l0,0v0c1.2,0.6,2.1,1.6,3,2.5
			c1.7,1.8,4.8,3.7,8.3,4l-4.3,24.4c-0.1,0.8,0.4,1.5,1.1,1.6c0.8,0.1,1.5-0.4,1.6-1.1l4.4-25c1.5-0.2,3-0.6,4.5-1
			c2.9-0.8,6-1.7,8.8-0.2c1.6,0.8,2.7,2.2,3.1,4.1c0.4,2,0.1,4.7-1.2,8c-1.1,2.7-2.6,5.1-3.3,7.9c-1,4.5,0.4,8.4,4.6,10.6
			c1.1,0.6,2.3,1,3.6,1.3l0,0c0.9,0.2,1.8,0.3,2.7,0.3c5.8-0.1,10.5-4.7,12.4-10C67.9-109.3,68.1-113.3,67.8-117z"/>
	</g>
</pattern>
<rect y="164" class="st2" width="92" height="92"/>
<circle class="st2" cx="46" cy="46" r="45"/>
<g>
	<defs>
		<rect id="SVGID_1_" x="-344.4" y="-54.4" width="199.6" height="202"/>
	</defs>
	<clipPath id="SVGID_2_">
		<use xlink:href="#SVGID_1_"  style="overflow:visible;"/>
	</clipPath>
	<g style="clip-path:url(#SVGID_2_);">
		
			<image style="overflow:visible;" width="1200" height="900" xlink:href="E:\_Samples\_photoclipart\texture\PAPER\069.jpg"  transform="matrix(0.2237 0 0 0.2237 -378.8018 -54.0918)">
		</image>
	</g>
</g>
<path class="st3" d="M-311.4-721.5c0,15.5-12.6,28.1-28.1,28.1h-393.8c-15.5,0-28.1-12.6-28.1-28.1v-393.8
	c0-15.5,12.6-28.1,28.1-28.1h393.8c15.5,0,28.1,12.6,28.1,28.1V-721.5z M-717.2-784.5c0,0.1,13.8,16.9,41.4,21.1h0
	c3.9,0.6,7.8,0.8,11.7,0.6c23.2-0.9,45.4-15.4,52.1-38.5l0,0l0,0c0,0,1.7-10.5,1.7-11.6c0.6-28-22.8-49.8-47.3-59.1l0,0v0l0,0
	c-4.2-1.7-8.1-3.3-11.5-5.2c-14.6-7.7-26.4-20.3-20.4-38.3l0,0h0c2.9-8.7,8.6-14.3,15.8-17c7.5-2.8,16.7-2.7,26.1,0.4v0l0.3,0.1v0
	c7.1,2.4,12.9,6.5,18.6,10.5c11.2,7.9,21.9,15.5,41.3,13.9v137.2c0,4.3,3.5,7.8,7.8,7.8c4.3,0,7.8-3.5,7.8-7.8v-140.3
	c8.2-2.6,15.8-6.3,23.4-10c15-7.3,31-14.9,48-9.6c9.7,3,17,9.4,20.9,19.1c4.3,10.7,4.9,25.5,0.9,44.6c-3.2,15.6-9.3,30.2-10.1,46.3
	c-1.3,25.3,10.5,45.5,35.1,53.1c6.5,2,13.5,3.1,20.6,3.5h0.1c5.3,0,10.1,0,15.3-1.1c31.7-6.2,52.9-35.8,58.2-66.5
	c3.3-19.1,0.2-41.2-4.7-61.1c-4.8-19.5-11.2-36.9-15.1-47c-1.5-4-6-6.1-10-4.6c-4,1.5-6.1,6-4.6,10c3.7,9.8,9.9,26.6,14.5,45.3
	c4.5,18.2,7.3,38.1,4.4,54.8c-4.2,24.3-20.3,48.8-45.7,53.8c-3.7,0.7-7.6,1-11.5,0.8l0,0c-5.7-0.3-11.5-1.1-17-2.8
	c-17.7-5.5-25.1-19.4-24.1-37.4c0.8-15.2,6.8-29.2,9.8-44c4.6-22.3,3.7-40.1-1.7-53.6c-5.8-14.4-16.4-23.8-30.8-28.2
	c-21.4-6.6-40.4,1.1-59.5,10.4c-5.5,2.6-11,5.4-16.5,7.5v-159.5c0-4.3-3.5-7.9-7.8-7.9c-4.3,0-7.8,3.6-7.8,7.9v163.5
	c-14.7,1.5-23.3-4.6-32.2-10.9c-6.6-4.6-13.4-9.5-22.7-12.6h0l-0.4-0.1h0c-12.7-4.2-25.5-4.3-36.4-0.2
	c-11.4,4.3-20.6,13.1-25.1,26.7l0,0l0,0.1c-8.6,25.8,6.3,45.5,28,57c4,2.1,8.4,4.1,13.2,5.9v0h0v0c18.2,7,37.8,22.9,37.3,44.2
	c-0.1,2.6-0.4,5.1-1.2,7.6l0,0l0,0h0c-4.9,16.6-21.2,26.5-37.7,27.2c-14.4,0.6-31.6-5.4-40.6-16.1c-2.8-3.3-7.7-3.7-11-0.9
	C-719.5-792.7-720-787.8-717.2-784.5L-717.2-784.5z"/>
<path class="st4" d="M-247.5-922.7c23.3-10.9,68.8-39.6,68.8,22.9c0,41.2,0,82.7,0,82.7"/>
<path class="st4" d="M-178.7-885.8c-54.4,25.5-84.5,34.2-84.5,74s30.4,47.9,83.5,29.4c24.9-8.6,41.4-17.5,41.4-17.5
	c0-59.1,0-141,0-141"/>
<path class="st4" d="M-135.3-907.5c38.7-24.7,98.2-58.1,98.2,2.3c0,29.3,0,133.3,0,133.3"/>
<path class="st4" d="M233.6-939.9c-49.2-0.9-42.8,31.6-93.4,31.6c-29.7,0-59.6-30.3-88.8-30.3c-36,0-52.5,20.5-52.5,86.2
	c0,55.2,11.5,81.8,41.5,80.5c18.1-0.8,40.8-5.4,70.4-26.6c0-28.1,0-255.2,0-289"/>
<line class="st4" x1="155.2" y1="-940.1" x2="155.2" y2="-773.6"/>
<g>
	<path class="st5" d="M147.4-3.1c3.8-1.8,11.1-6.4,11.1,3.7c0,6.6,0,13.3,0,13.3"/>
	<path class="st5" d="M158.5,2.8c-8.8,4.1-13.6,5.5-13.6,11.9c0,6.4,4.9,7.7,13.4,4.7c4-1.4,6.7-2.8,6.7-2.8c0-9.5,0-22.7,0-22.7"/>
	<path class="st5" d="M165.5-0.7c6.2-4,15.8-9.3,15.8,0.4c0,4.7,0,21.4,0,21.4"/>
	<path class="st5" d="M224.8-5.9c-7.9-0.1-6.9,5.1-15,5.1c-4.8,0-9.6-4.9-14.3-4.9c-5.8,0-8.4,3.3-8.4,13.9c0,8.9,1.9,13.2,6.7,13
		c2.9-0.1,6.6-0.9,11.3-4.3c0-4.5,0-41.1,0-46.5"/>
	<line class="st5" x1="212.2" y1="-5.9" x2="212.2" y2="20.9"/>
</g>
<g>
	<path class="st3" d="M-254.2,10.1h-63c-2.5,0-4.5,2-4.5,4.5v63c0,2.5,2,4.5,4.5,4.5h63c2.5,0,4.5-2,4.5-4.5v-63
		C-249.7,12.1-251.8,10.1-254.2,10.1z M-257.4,60c-0.8,4.9-4.2,9.6-9.3,10.6c-0.8,0.2-1.6,0.2-2.4,0.2h0c-1.1-0.1-2.3-0.2-3.3-0.6
		c-3.9-1.2-5.8-4.5-5.6-8.5c0.1-2.6,1.1-4.9,1.6-7.4c0.6-3.1,0.5-5.4-0.1-7.1c-0.6-1.6-1.8-2.6-3.3-3.1c-2.7-0.8-5.3,0.4-7.7,1.5
		c-1.2,0.6-2.4,1.2-3.7,1.6v22.4c0,0.7-0.6,1.2-1.3,1.2c-0.7,0-1.3-0.6-1.3-1.2V47.8c-3.1,0.3-4.8-1-6.6-2.2c-0.9-0.6-1.8-1.3-3-1.7
		v0l0,0v0c-1.5-0.5-3-0.5-4.2-0.1c-1.1,0.4-2.1,1.3-2.5,2.7h0c-1,2.9,0.9,4.9,3.3,6.1c0.5,0.3,1.2,0.6,1.8,0.8v0l0,0
		c3.9,1.5,7.7,5,7.6,9.5c0,0.2-0.3,1.9-0.3,1.9l0,0l0,0c-1.1,3.7-4.6,6-8.3,6.2c-0.6,0-1.3,0-1.9-0.1h0c-4.4-0.7-6.6-3.4-6.6-3.4
		c-0.4-0.5-0.4-1.3,0.2-1.8c0.5-0.4,1.3-0.4,1.8,0.2c1.4,1.7,4.2,2.7,6.5,2.6c2.6-0.1,5.3-1.7,6-4.3h0l0,0l0,0
		c0.1-0.4,0.2-0.8,0.2-1.2c0.1-3.4-3.1-6-6-7.1v0h0v0c-0.8-0.3-1.5-0.6-2.1-0.9c-3.5-1.8-5.8-5-4.5-9.1l0,0c0.7-2.2,2.2-3.6,4-4.3
		c1.7-0.7,3.8-0.6,5.8,0h0l0.1,0h0c1.5,0.5,2.6,1.3,3.6,2c1.4,1,2.8,2,5.2,1.7V19.1c0-0.7,0.6-1.3,1.3-1.3c0.7,0,1.3,0.6,1.3,1.3
		v25.5c0.9-0.3,1.8-0.8,2.6-1.2c3.1-1.5,6.1-2.7,9.5-1.7c2.3,0.7,4,2.2,4.9,4.5c0.9,2.2,1,5,0.3,8.6c-0.5,2.4-1.4,4.6-1.6,7
		c-0.1,2.9,1,5.1,3.9,6c0.9,0.3,1.8,0.4,2.7,0.5c0.6,0,1.2,0,1.8-0.1c4.1-0.8,6.6-4.7,7.3-8.6c0.5-2.7,0-5.9-0.7-8.8
		c-0.7-3-1.7-5.7-2.3-7.2c-0.2-0.6,0.1-1.4,0.7-1.6c0.6-0.2,1.4,0.1,1.6,0.7c0.6,1.6,1.6,4.4,2.4,7.5C-257.4,53.4-256.9,57-257.4,60
		z"/>
	<path class="st3" d="M-207.1,41.7c-3.3-1.8-8.4,0.4-13.3,3.4v-2.6c0-0.9-0.8-1.7-1.7-1.7c-0.9,0-1.7,0.8-1.7,1.7V64
		c-1.1,0.5-3,1.4-5.5,2.2c-4.6,1.6-8.1,1.8-9.7,0.7c-1-0.7-1.4-1.9-1.4-3.8c0-4.4,2.5-5.7,9.8-9c0.1-0.1,0.3-0.1,0.4-0.2v8.4
		c0,0.9,0.8,1.7,1.7,1.7s1.7-0.8,1.7-1.7V49.1c0-3.7-0.9-6-2.8-7.2c-2.9-1.8-6.7,0.1-9.5,1.5c-0.4,0.2-0.7,0.4-1.1,0.5
		c-0.8,0.4-1.2,1.4-0.8,2.2c0.4,0.8,1.4,1.2,2.2,0.8c0.4-0.2,0.7-0.4,1.1-0.5c1.9-0.9,5-2.5,6.3-1.6c0.8,0.5,1.2,2,1.2,4.3v1.2
		c-0.6,0.3-1.2,0.6-1.8,0.8c-7.1,3.2-11.7,5.4-11.7,12.1c0,3,1,5.2,2.8,6.5c1.3,0.9,2.9,1.4,4.9,1.4c2.2,0,4.8-0.5,7.9-1.6
		c4.1-1.4,6.8-2.8,6.9-2.9l0.9-0.5V49c2-1.2,4.4-2.7,6.8-3.7c3.1-1.3,4.4-1,4.9-0.7c1,0.5,1.2,2.2,1.2,3.5v21.3
		c0,0.9,0.8,1.7,1.7,1.7c0.9,0,1.7-0.8,1.7-1.7V48.2C-204.2,45-205.2,42.8-207.1,41.7z"/>
	<path class="st3" d="M-162.5,41c-4.5-0.1-6.6,1.5-8.4,2.8c-0.8,0.6-1.5,1.1-2.5,1.5v-2.7c0-0.9-0.8-1.7-1.7-1.7
		c-0.9,0-1.7,0.8-1.7,1.7V46c-0.2,0-0.5,0-0.7,0c-1,0-2-0.3-3-0.7V19c0-0.9-0.8-1.7-1.7-1.7c-0.9,0-1.7,0.8-1.7,1.7v24.7
		c0,0,0,0,0,0c-2.5-1.3-5.1-2.6-7.8-2.6c-3.6,0-6.2,1.2-7.8,3.7c-1.6,2.4-2.3,6.2-2.3,11.7c0,6.7,1,10.6,3.3,12.8
		c1.2,1.2,2.8,1.8,4.7,1.8c0.1,0,0.3,0,0.4,0c2.6-0.1,6.8-0.7,12.2-4.6l0.7-0.5V48.9c1,0.3,2,0.5,3,0.5c0.2,0,0.5,0,0.7,0v19.9
		c0,0.9,0.8,1.7,1.7,1.7c0.9,0,1.7-0.8,1.7-1.7V48.9c2-0.6,3.3-1.5,4.5-2.4c1.7-1.2,3-2.2,6.4-2.1c0.9,0,1.7-0.7,1.7-1.7
		C-160.9,41.7-161.6,41-162.5,41z M-183.9,64.4c-4.3,2.9-7.4,3.4-9.7,3.5c-1.2,0-2-0.2-2.7-0.9c-1.5-1.4-2.2-4.9-2.2-10.4
		c0-4.8,0.6-8.1,1.8-9.9c1-1.5,2.5-2.2,5-2.2c1.9,0,4,1.1,6.3,2.2c0.5,0.3,1,0.5,1.6,0.8V64.4z"/>
</g>
<path class="st1" d="M79.8,56.7c-1,5.5-4.8,10.9-10.5,12c-0.9,0.2-1.8,0.2-2.8,0.2h0c-1.3-0.1-2.6-0.3-3.7-0.6
	c-4.5-1.4-6.6-5-6.3-9.6c0.2-2.9,1.2-5.6,1.8-8.4c0.7-3.5,0.6-6.1-0.2-8.1c-0.7-1.8-2-2.9-3.8-3.5c-3.1-1-6,0.4-8.7,1.7
	c-1.4,0.7-2.8,1.3-4.2,1.8v25.4c0,0.8-0.6,1.4-1.4,1.4c-0.8,0-1.4-0.6-1.4-1.4V42.9c-3.5,0.3-6.9-1.1-8.9-2.5
	c-1-0.7-2.1-1.5-3.4-1.9v0l-0.1,0v0c-1.7-0.6-3.4-0.6-4.7-0.1c-1.3,0.5-2.3,1.5-2.8,3.1h0c-1.1,3.2,1.1,5.5,3.7,6.9
	c0.6,0.3,1.3,0.6,2.1,0.9v0l0,0C29,51,33.2,54.9,33.1,60c0,0.2-0.3,2.1-0.3,2.1l0,0l0,0c-1.2,4.2-5.2,6.8-9.4,7
	c-0.7,0-1.4,0-2.1-0.1h0c-5-0.7-7.5-3.8-7.5-3.8c-0.5-0.6-0.4-1.5,0.2-2c0.6-0.5,1.5-0.4,2,0.2c1.6,1.9,4.7,3,7.3,2.9
	c3-0.1,5.9-1.9,6.8-4.9h0l0,0l0,0c0.1-0.5,0.2-0.9,0.2-1.4c0.1-3.9-3.5-6.7-6.7-8v0h0v0c-0.9-0.3-1.7-0.7-2.4-1.1
	c-3.9-2.1-6.6-5.6-5.1-10.3l0,0c0.8-2.4,2.5-4,4.5-4.8c2-0.7,4.3-0.7,6.6,0h0l0.1,0h0c1.7,0.6,2.9,1.4,4.1,2.3
	c1.6,1.2,4.6,2.2,7.2,2V10.5c0-0.8,0.6-1.4,1.4-1.4c0.8,0,1.4,0.6,1.4,1.4v28.8c1-0.4,2-0.9,3-1.3c3.4-1.7,6.9-3.1,10.7-1.9
	c2.6,0.8,4.5,2.5,5.6,5.1c1,2.4,1.1,5.7,0.3,9.7c-0.6,2.7-1.6,5.2-1.8,7.9c-0.2,3.3,1.2,5.8,4.4,6.8c1,0.3,2,0.5,3.1,0.5
	c0.7,0,1.4,0,2.1-0.2c4.6-0.9,7.5-5.3,8.3-9.7c0.5-3,0-6.6-0.8-9.9c-0.8-3.4-2-6.4-2.6-8.2c-0.3-0.7,0.1-1.5,0.8-1.8
	c0.7-0.3,1.5,0.1,1.8,0.8c0.7,1.8,1.9,5,2.7,8.5C79.9,49.2,80.4,53.2,79.8,56.7z"/>
<path class="st1" d="M79,220.7c-1,5.5-4.8,10.9-10.5,12c-0.9,0.2-1.8,0.2-2.8,0.2h0c-1.3-0.1-2.6-0.3-3.7-0.6
	c-4.5-1.4-6.6-5-6.3-9.6c0.2-2.9,1.2-5.6,1.8-8.4c0.7-3.5,0.6-6.1-0.2-8.1c-0.7-1.8-2-2.9-3.8-3.5c-3.1-1-6,0.4-8.7,1.7
	c-1.4,0.7-2.8,1.3-4.2,1.8v25.4c0,0.8-0.6,1.4-1.4,1.4c-0.8,0-1.4-0.6-1.4-1.4v-24.8c-3.5,0.3-6.9-1.1-8.9-2.5
	c-1-0.7-2.1-1.5-3.4-1.9v0l-0.1,0v0c-1.7-0.6-3.4-0.6-4.7-0.1c-1.3,0.5-2.3,1.5-2.8,3.1h0c-1.1,3.2,1.1,5.5,3.7,6.9
	c0.6,0.3,1.3,0.6,2.1,0.9v0l0,0c4.4,1.7,8.7,5.6,8.6,10.7c0,0.2-0.3,2.1-0.3,2.1l0,0l0,0c-1.2,4.2-5.2,6.8-9.4,7
	c-0.7,0-1.4,0-2.1-0.1h0c-5-0.7-7.5-3.8-7.5-3.8c-0.5-0.6-0.4-1.5,0.2-2c0.6-0.5,1.5-0.4,2,0.2c1.6,1.9,4.7,3,7.3,2.9
	c3-0.1,5.9-1.9,6.8-4.9h0l0,0l0,0c0.1-0.5,0.2-0.9,0.2-1.4c0.1-3.9-3.5-6.7-6.7-8v0h0v0c-0.9-0.3-1.7-0.7-2.4-1.1
	c-3.9-2.1-6.6-5.6-5.1-10.3l0,0c0.8-2.4,2.5-4,4.5-4.8c2-0.7,4.3-0.7,6.6,0h0l0.1,0h0c1.7,0.6,2.9,1.4,4.1,2.3
	c1.6,1.2,4.6,2.2,7.2,2v-29.5c0-0.8,0.6-1.4,1.4-1.4c0.8,0,1.4,0.6,1.4,1.4v28.8c1-0.4,2-0.9,3-1.3c3.4-1.7,6.9-3.1,10.7-1.9
	c2.6,0.8,4.5,2.5,5.6,5.1c1,2.4,1.1,5.7,0.3,9.7c-0.6,2.7-1.6,5.2-1.8,7.9c-0.2,3.3,1.2,5.8,4.4,6.8c1,0.3,2,0.5,3.1,0.5
	c0.7,0,1.4,0,2.1-0.2c4.6-0.9,7.5-5.3,8.3-9.7c0.5-3,0-6.6-0.8-9.9c-0.8-3.4-2-6.4-2.6-8.2c-0.3-0.7,0.1-1.5,0.8-1.8
	c0.7-0.3,1.5,0.1,1.8,0.8c0.7,1.8,1.9,5,2.7,8.5C79,213.2,79.6,217.2,79,220.7z"/>
<circle class="st6" cx="46" cy="-75.9" r="45"/>
<path class="st1" d="M80.4-65.2c-1,5.5-4.8,10.9-10.5,12C68.9-53,68.1-53,67.1-53h0c-1.3-0.1-2.6-0.3-3.7-0.6
	c-4.5-1.4-6.6-5-6.3-9.6c0.2-2.9,1.2-5.6,1.8-8.4c0.7-3.5,0.6-6.1-0.2-8.1c-0.7-1.8-2-2.9-3.8-3.5c-3.1-1-6,0.4-8.7,1.7
	c-1.4,0.7-2.8,1.3-4.2,1.8v25.4c0,0.8-0.6,1.4-1.4,1.4c-0.8,0-1.4-0.6-1.4-1.4V-79c-3.5,0.3-5.4-1.1-7.5-2.5c-1-0.7-2.1-1.5-3.4-1.9
	v0l-0.1,0v0C26.6-84,25-84,23.6-83.5c-1.3,0.5-2.3,1.5-2.8,3.1h0c-1.1,3.2,1.1,5.5,3.7,6.9c0.6,0.3,1.3,0.6,2.1,0.9v0l0,0
	c4.4,1.7,8.7,5.6,8.6,10.7c0,0.2-0.3,2.1-0.3,2.1l0,0l0,0c-1.2,4.2-5.2,6.8-9.4,7c-0.7,0-1.4,0-2.1-0.1h0c-5-0.7-7.5-3.8-7.5-3.8
	c-0.5-0.6-0.4-1.5,0.2-2c0.6-0.5,1.5-0.4,2,0.2c1.6,1.9,4.7,3,7.3,2.9c3-0.1,5.9-1.9,6.8-4.9h0l0,0l0,0c0.1-0.5,0.2-0.9,0.2-1.4
	c0.1-3.9-3.5-6.7-6.7-8v0h0v0c-0.9-0.3-1.7-0.7-2.4-1.1c-3.9-2.1-6.6-5.6-5.1-10.3l0,0c0.8-2.4,2.5-4,4.5-4.8c2-0.7,4.3-0.7,6.6,0h0
	l0.1,0h0c1.7,0.6,2.9,1.4,4.1,2.3c1.6,1.2,3.2,2.3,5.8,2v-29.5c0-0.8,0.6-1.4,1.4-1.4c0.8,0,1.4,0.6,1.4,1.4v28.8c1-0.4,2-0.9,3-1.3
	c3.4-1.7,6.9-3.1,10.7-1.9c2.6,0.8,4.5,2.5,5.6,5.1c1,2.4,1.1,5.7,0.3,9.7c-0.6,2.7-1.6,5.2-1.8,7.9c-0.2,3.3,1.2,5.8,4.4,6.8
	c1,0.3,2,0.5,3.1,0.5c0.7,0,1.4,0,2.1-0.2c4.6-0.9,7.5-5.3,8.3-9.7c0.5-3,0-6.6-0.8-9.9c-0.8-3.4-2-6.4-2.6-8.2
	c-0.3-0.7,0.1-1.5,0.8-1.8c0.7-0.3,1.5,0.1,1.8,0.8c0.7,1.8,1.9,5,2.7,8.5C80.4-72.6,81-68.6,80.4-65.2z"/>
<path class="st3" d="M221.5,41.7c-3.3-1.8-8.4,0.4-13.3,3.4v-2.6c0-0.9-0.8-1.7-1.7-1.7c-0.9,0-1.7,0.8-1.7,1.7V64
	c-1.1,0.5-3,1.4-5.5,2.2c-4.6,1.6-8.1,1.8-9.7,0.7c-1-0.7-1.4-1.9-1.4-3.8c0-4.4,2.5-5.7,9.8-9c0.1-0.1,0.3-0.1,0.4-0.2v8.4
	c0,0.9,0.8,1.7,1.7,1.7c0.9,0,1.7-0.8,1.7-1.7V49.1c0-3.7-0.9-6-2.8-7.2c-2.9-1.8-6.7,0.1-9.5,1.5c-0.4,0.2-0.7,0.4-1.1,0.5
	c-0.8,0.4-1.2,1.4-0.8,2.2c0.4,0.8,1.4,1.2,2.2,0.8c0.4-0.2,0.7-0.4,1.1-0.5c1.9-0.9,5-2.5,6.3-1.6c0.8,0.5,1.2,2,1.2,4.3v1.2
	c-0.6,0.3-1.2,0.6-1.8,0.8c-7.1,3.2-11.7,5.4-11.7,12.1c0,3,1,5.2,2.8,6.5c1.3,0.9,2.9,1.4,4.9,1.4c2.2,0,4.8-0.5,7.9-1.6
	c4.1-1.4,6.8-2.8,6.9-2.9l0.9-0.5V49c2-1.2,4.4-2.7,6.8-3.7c3.1-1.3,4.4-1,4.9-0.7c1,0.5,1.2,2.2,1.2,3.5v21.3
	c0,0.9,0.8,1.7,1.7,1.7c0.9,0,1.7-0.8,1.7-1.7V48.2C224.4,45,223.4,42.8,221.5,41.7z"/>
<path class="st3" d="M266.1,41c-4.5-0.1-6.6,1.5-8.4,2.8c-0.8,0.6-1.5,1.1-2.5,1.5v-2.7c0-0.9-0.8-1.7-1.7-1.7
	c-0.9,0-1.7,0.8-1.7,1.7V46c-0.2,0-0.5,0-0.7,0c-1,0-2-0.3-3-0.7V19c0-0.9-0.8-1.7-1.7-1.7c-0.9,0-1.7,0.8-1.7,1.7v24.7c0,0,0,0,0,0
	c-2.5-1.3-5.1-2.6-7.8-2.6c-3.6,0-6.2,1.2-7.8,3.7c-1.6,2.4-2.3,6.2-2.3,11.7c0,6.7,1,10.6,3.3,12.8c1.2,1.2,2.8,1.8,4.7,1.8
	c0.1,0,0.3,0,0.4,0c2.6-0.1,6.8-0.7,12.2-4.6l0.7-0.5V48.9c1,0.3,2,0.5,3,0.5c0.2,0,0.5,0,0.7,0v19.9c0,0.9,0.8,1.7,1.7,1.7
	c0.9,0,1.7-0.8,1.7-1.7V48.9c2-0.6,3.3-1.5,4.5-2.4c1.7-1.2,3-2.2,6.4-2.1c0.9,0,1.7-0.7,1.7-1.7C267.7,41.7,267,41,266.1,41z
	 M244.7,64.4c-4.3,2.9-7.4,3.4-9.7,3.5c-1.2,0-2-0.2-2.7-0.9c-1.5-1.4-2.2-4.9-2.2-10.4c0-4.8,0.6-8.1,1.8-9.9c1-1.5,2.5-2.2,5-2.2
	c1.9,0,4,1.1,6.3,2.2c0.5,0.3,1,0.5,1.6,0.8V64.4z"/>
<g>
	
		<image style="overflow:visible;opacity:0.75;" width="281" height="303" xlink:href="79890738.png"  transform="matrix(1 0 0 1 -395.8516 -108.6133)">
	</image>
	<g>
		<polygon class="st7" points="-139.1,-114.1 -384.3,-114.1 -384.3,-53.7 -383.3,-53.7 -383.6,153.4 -345.9,153.4 -345.6,-53.7 
			-139.1,-53.7 		"/>
	</g>
</g>
<g>
	<rect x="-193.7" y="426.9" class="st8" width="1200" height="600"/>
	<pattern  id="SVGID_3_" xlink:href="#New_Pattern" patternTransform="matrix(0.9848 -0.1736 0.1736 0.9848 1277.5811 -729.6564)">
	</pattern>
	<rect x="-193.7" y="426.9" class="st9" width="1200" height="600"/>
</g>
<g>
	<rect x="-193.7" y="1100.9" class="st8" width="1200" height="600"/>
	
		<pattern  id="SVGID_4_" xlink:href="#New_Pattern" patternTransform="matrix(0.5909 -0.1042 0.1042 0.5909 -2030.2157 -3519.6362)">
	</pattern>
	<rect x="-193.7" y="1100.9" class="st10" width="1200" height="600"/>
</g>
<g>
	<g>
		<path class="st11" d="M1149.3,46.6c1.1,0,1.5-1.4,0.2-1.4C1148.4,45.2,1148,46.6,1149.3,46.6L1149.3,46.6z"/>
	</g>
</g>
</svg>
